<?xml version="1.0" encoding="UTF-8"?>
<svg xmlns="http://www.w3.org/2000/svg" viewBox="0 0 450 720" width="450" height="720">

  <defs>
    <linearGradient id="gold_02trevo" x1="0%" y1="0%" x2="100%" y2="100%">
      <stop offset="0%" stop-color="#F5E6B8"/><stop offset="40%" stop-color="#DFB76C"/><stop offset="100%" stop-color="#B8944F"/>
    </linearGradient>
    <radialGradient id="glow_02trevo" cx="50%" cy="40%" r="65%">
      <stop offset="0%" stop-color="rgba(255,220,150,0.35)"/><stop offset="100%" stop-color="rgba(0,0,0,0)"/>
    </radialGradient>
    <filter id="soft_02trevo"><feGaussianBlur stdDeviation="3" result="b"/><feMerge><feMergeNode in="b"/><feMergeNode in="SourceGraphic"/></feMerge></filter>
  </defs>
<rect width="450" height="720" rx="24" fill="#1A0508"/>
<rect width="450" height="720" rx="24" fill="url(#bg_02trevo)"/>
<defs><radialGradient id="bg_02trevo" cx="50%" cy="38%" r="75%"><stop offset="0%" stop-color="#0a1f12"/><stop offset="50%" stop-color="#14532d"/><stop offset="100%" stop-color="#166534"/></radialGradient></defs>
<rect width="450" height="720" rx="24" fill="url(#glow_02trevo)"/>
<rect x="6" y="6" width="438" height="708" rx="20" fill="none" stroke="url(#gold_02trevo)" stroke-width="2.5" opacity="0.75"/>

    <g transform="translate(8,8) scale(1,1)" fill="none" stroke="url(#gold_02trevo)" stroke-width="2.2" opacity="0.9">
      <path d="M4,4 C18,2 28,12 22,26 C14,18 4,4 4,4Z"/>
      <path d="M8,8 C14,6 18,12 14,18" stroke-width="1.2" opacity="0.7"/>
      <circle cx="20" cy="8" r="2.5" fill="url(#gold_02trevo)" stroke="none"/>
    </g>
    <g transform="translate(442,8) scale(-1,1)" fill="none" stroke="url(#gold_02trevo)" stroke-width="2.2" opacity="0.9">
      <path d="M4,4 C18,2 28,12 22,26 C14,18 4,4 4,4Z"/>
      <path d="M8,8 C14,6 18,12 14,18" stroke-width="1.2" opacity="0.7"/>
      <circle cx="20" cy="8" r="2.5" fill="url(#gold_02trevo)" stroke="none"/>
    </g>
    <g transform="translate(8,712) scale(1,-1)" fill="none" stroke="url(#gold_02trevo)" stroke-width="2.2" opacity="0.9">
      <path d="M4,4 C18,2 28,12 22,26 C14,18 4,4 4,4Z"/>
      <path d="M8,8 C14,6 18,12 14,18" stroke-width="1.2" opacity="0.7"/>
      <circle cx="20" cy="8" r="2.5" fill="url(#gold_02trevo)" stroke="none"/>
    </g>
    <g transform="translate(442,712) scale(-1,-1)" fill="none" stroke="url(#gold_02trevo)" stroke-width="2.2" opacity="0.9">
      <path d="M4,4 C18,2 28,12 22,26 C14,18 4,4 4,4Z"/>
      <path d="M8,8 C14,6 18,12 14,18" stroke-width="1.2" opacity="0.7"/>
      <circle cx="20" cy="8" r="2.5" fill="url(#gold_02trevo)" stroke="none"/>
    </g>

    <circle cx="58" cy="58" r="36" fill="url(#gold_02trevo)" stroke="#B8944F" stroke-width="2"/>
    <circle cx="58" cy="58" r="28" fill="#4A0E12"/>
    <text x="58" y="70" text-anchor="middle" fill="#DFB76C" font-family="Georgia,serif" font-size="32" font-weight="bold">2</text>
<g filter="url(#soft_02trevo)">
    <g transform="translate(140,220) rotate(0)">
      <ellipse cx="50" cy="70" rx="45" ry="55" fill="#22C55E" opacity="0.9"/>
      <ellipse cx="20" cy="30" rx="28" ry="35" fill="#4ADE80" transform="rotate(-30 20 30)"/>
      <ellipse cx="80" cy="30" rx="28" ry="35" fill="#4ADE80" transform="rotate(30 80 30)"/>
      <ellipse cx="20" cy="90" rx="28" ry="35" fill="#4ADE80" transform="rotate(30 20 90)"/>
      <ellipse cx="80" cy="90" rx="28" ry="35" fill="#4ADE80" transform="rotate(-30 80 90)"/>
    </g><g transform="translate(260,220) rotate(15)">
      <ellipse cx="50" cy="70" rx="45" ry="55" fill="#22C55E" opacity="0.9"/>
      <ellipse cx="20" cy="30" rx="28" ry="35" fill="#4ADE80" transform="rotate(-30 20 30)"/>
      <ellipse cx="80" cy="30" rx="28" ry="35" fill="#4ADE80" transform="rotate(30 80 30)"/>
      <ellipse cx="20" cy="90" rx="28" ry="35" fill="#4ADE80" transform="rotate(30 20 90)"/>
      <ellipse cx="80" cy="90" rx="28" ry="35" fill="#4ADE80" transform="rotate(-30 80 90)"/>
    </g><g transform="translate(140,350) rotate(30)">
      <ellipse cx="50" cy="70" rx="45" ry="55" fill="#22C55E" opacity="0.9"/>
      <ellipse cx="20" cy="30" rx="28" ry="35" fill="#4ADE80" transform="rotate(-30 20 30)"/>
      <ellipse cx="80" cy="30" rx="28" ry="35" fill="#4ADE80" transform="rotate(30 80 30)"/>
      <ellipse cx="20" cy="90" rx="28" ry="35" fill="#4ADE80" transform="rotate(30 20 90)"/>
      <ellipse cx="80" cy="90" rx="28" ry="35" fill="#4ADE80" transform="rotate(-30 80 90)"/>
    </g><g transform="translate(260,350) rotate(45)">
      <ellipse cx="50" cy="70" rx="45" ry="55" fill="#22C55E" opacity="0.9"/>
      <ellipse cx="20" cy="30" rx="28" ry="35" fill="#4ADE80" transform="rotate(-30 20 30)"/>
      <ellipse cx="80" cy="30" rx="28" ry="35" fill="#4ADE80" transform="rotate(30 80 30)"/>
      <ellipse cx="20" cy="90" rx="28" ry="35" fill="#4ADE80" transform="rotate(30 20 90)"/>
      <ellipse cx="80" cy="90" rx="28" ry="35" fill="#4ADE80" transform="rotate(-30 80 90)"/>
    </g>
    <circle cx="225" cy="360" r="80" fill="url(#gold_02trevo)" opacity="0.12"/>
  </g>
</svg>