<?xml version="1.0" encoding="UTF-8"?>
<svg xmlns="http://www.w3.org/2000/svg" viewBox="0 0 450 720" width="450" height="720">

  <defs>
    <linearGradient id="gold_18cao" x1="0%" y1="0%" x2="100%" y2="100%">
      <stop offset="0%" stop-color="#F5E6B8"/><stop offset="40%" stop-color="#DFB76C"/><stop offset="100%" stop-color="#B8944F"/>
    </linearGradient>
    <radialGradient id="glow_18cao" cx="50%" cy="40%" r="65%">
      <stop offset="0%" stop-color="rgba(255,220,150,0.35)"/><stop offset="100%" stop-color="rgba(0,0,0,0)"/>
    </radialGradient>
    <filter id="soft_18cao"><feGaussianBlur stdDeviation="3" result="b"/><feMerge><feMergeNode in="b"/><feMergeNode in="SourceGraphic"/></feMerge></filter>
  </defs>
<rect width="450" height="720" rx="24" fill="#1A0508"/>
<rect width="450" height="720" rx="24" fill="url(#bg_18cao)"/>
<defs><radialGradient id="bg_18cao" cx="50%" cy="38%" r="75%"><stop offset="0%" stop-color="#1a1008"/><stop offset="50%" stop-color="#3d2818"/><stop offset="100%" stop-color="#5c4030"/></radialGradient></defs>
<rect width="450" height="720" rx="24" fill="url(#glow_18cao)"/>
<rect x="6" y="6" width="438" height="708" rx="20" fill="none" stroke="url(#gold_18cao)" stroke-width="2.5" opacity="0.75"/>

    <g transform="translate(8,8) scale(1,1)" fill="none" stroke="url(#gold_18cao)" stroke-width="2.2" opacity="0.9">
      <path d="M4,4 C18,2 28,12 22,26 C14,18 4,4 4,4Z"/>
      <path d="M8,8 C14,6 18,12 14,18" stroke-width="1.2" opacity="0.7"/>
      <circle cx="20" cy="8" r="2.5" fill="url(#gold_18cao)" stroke="none"/>
    </g>
    <g transform="translate(442,8) scale(-1,1)" fill="none" stroke="url(#gold_18cao)" stroke-width="2.2" opacity="0.9">
      <path d="M4,4 C18,2 28,12 22,26 C14,18 4,4 4,4Z"/>
      <path d="M8,8 C14,6 18,12 14,18" stroke-width="1.2" opacity="0.7"/>
      <circle cx="20" cy="8" r="2.5" fill="url(#gold_18cao)" stroke="none"/>
    </g>
    <g transform="translate(8,712) scale(1,-1)" fill="none" stroke="url(#gold_18cao)" stroke-width="2.2" opacity="0.9">
      <path d="M4,4 C18,2 28,12 22,26 C14,18 4,4 4,4Z"/>
      <path d="M8,8 C14,6 18,12 14,18" stroke-width="1.2" opacity="0.7"/>
      <circle cx="20" cy="8" r="2.5" fill="url(#gold_18cao)" stroke="none"/>
    </g>
    <g transform="translate(442,712) scale(-1,-1)" fill="none" stroke="url(#gold_18cao)" stroke-width="2.2" opacity="0.9">
      <path d="M4,4 C18,2 28,12 22,26 C14,18 4,4 4,4Z"/>
      <path d="M8,8 C14,6 18,12 14,18" stroke-width="1.2" opacity="0.7"/>
      <circle cx="20" cy="8" r="2.5" fill="url(#gold_18cao)" stroke="none"/>
    </g>

    <circle cx="58" cy="58" r="36" fill="url(#gold_18cao)" stroke="#B8944F" stroke-width="2"/>
    <circle cx="58" cy="58" r="28" fill="#4A0E12"/>
    <text x="58" y="70" text-anchor="middle" fill="#DFB76C" font-family="Georgia,serif" font-size="32" font-weight="bold">18</text>
<g filter="url(#soft_18cao)">
    <rect x="130" y="250" width="190" height="280" fill="#451A03" rx="4"/>
    <rect x="160" y="300" width="130" height="180" fill="#FEF3C7" opacity="0.3"/>
    <ellipse cx="225" cy="480" rx="70" ry="50" fill="#D97706"/>
    <ellipse cx="225" cy="430" rx="50" ry="45" fill="#F59E0B"/>
    <circle cx="210" cy="415" r="6" fill="#0f172a"/><circle cx="240" cy="415" r="6" fill="#0f172a"/>
    <ellipse cx="225" cy="435" rx="15" ry="10" fill="#451A03"/>
    <path d="M190,460 L160,500" stroke="#DC2626" stroke-width="5" fill="none"/>
    <circle cx="155" cy="505" r="8" fill="#DC2626"/>
  </g>
</svg>